<svg width="20" height="18" viewBox="0 0 20 18" xmlns="http://www.w3.org/2000/svg">
    <path d="M10.7105 18C14.2753 18 16.6626 16.6309 16.6626 14.5861C16.6626 12.8133 15.3228 12.4447 15.3228 11.4091C15.3228 9.98732 20 9.75914 20 6.07314C20 2.41346 16.5083 0 11.3033 0C4.5473 0 0 3.69478 0 9.14481C0 14.4456 4.31994 18 10.7105 18ZM11.5388 5.66065C10.7836 5.66065 10.1502 5.00244 10.1502 4.17747C10.1502 3.34373 10.7836 2.67674 11.5388 2.67674C12.3102 2.67674 12.9192 3.34373 12.9192 4.17747C12.9192 5.00244 12.3102 5.66065 11.5388 5.66065ZM7.10516 7.09995C6.1551 7.09995 5.38368 6.28376 5.38368 5.2394C5.38368 4.22136 6.1551 3.41394 7.10516 3.41394C8.0471 3.41394 8.81851 4.22136 8.81851 5.2394C8.81851 6.28376 8.0471 7.09995 7.10516 7.09995ZM15.4852 6.42418C14.8599 6.42418 14.3484 5.88883 14.3484 5.21307C14.3484 4.54608 14.8599 3.99317 15.4852 3.99317C16.1023 3.99317 16.5976 4.56363 16.5976 5.21307C16.5976 5.87128 16.1023 6.42418 15.4852 6.42418ZM3.90581 10.2682C3.15063 10.2682 2.5335 9.59239 2.5335 8.77621C2.5335 7.97757 3.17499 7.3018 3.90581 7.3018C4.66098 7.3018 5.27 7.96002 5.27 8.77621C5.27 9.59239 4.65286 10.2682 3.90581 10.2682ZM10.5887 14.5948C9.33821 14.5948 8.31506 13.489 8.31506 12.1287C8.31506 10.7772 9.33821 9.6626 10.5887 9.6626C11.8473 9.6626 12.8705 10.7772 12.8705 12.1287C12.8705 13.5066 11.8717 14.5948 10.5887 14.5948Z" fill="#F9F9F9"/>
</svg>
