<svg width="28" height="28" viewBox="0 0 28 28" fill="currentColor" xmlns="http://www.w3.org/2000/svg">
<path fill-rule="evenodd" clip-rule="evenodd" d="M14.0671 7.42087e-06C10.7276 -0.00345945 7.49611 1.20791 4.95162 3.41704C2.40714 5.62616 0.716018 8.68864 0.181328 12.0556C-0.353361 15.4227 0.303328 18.8741 2.03371 21.7915C3.7641 24.7089 6.45507 26.9015 9.62439 27.9764C10.3318 28.1086 10.5819 27.6592 10.5819 27.2803C10.5819 26.9014 10.5819 26.0379 10.5819 24.8395C6.65683 25.7119 5.82867 22.9098 5.82867 22.9098C5.56827 22.0414 5.01507 21.2953 4.26725 20.8039C2.99913 19.9227 4.37077 19.9227 4.37077 19.9227C4.8153 19.9869 5.23971 20.1535 5.61186 20.41C5.98402 20.6664 6.29416 21.006 6.5188 21.4031C6.70967 21.7566 6.96701 22.0681 7.27605 22.3198C7.58508 22.5715 7.93973 22.7583 8.31965 22.8697C8.69956 22.981 9.09726 23.0146 9.48993 22.9686C9.88259 22.9226 10.2625 22.7978 10.6078 22.6014C10.662 21.8765 10.9679 21.1953 11.4705 20.6805C8.34765 20.3192 5.06953 19.0856 5.06953 13.6313C5.04808 12.2065 5.5639 10.8278 6.51017 9.78073C6.08872 8.54187 6.13798 7.18653 6.6482 5.98299C6.6482 5.98299 7.83005 5.59529 10.5129 7.45451C12.8168 6.80842 15.2485 6.80842 17.5523 7.45451C20.2352 5.59529 21.4084 5.98299 21.4084 5.98299C21.9257 7.1738 21.9873 8.51941 21.5809 9.7543C22.5272 10.8014 23.043 12.1801 23.0216 13.6049C23.0216 19.1209 19.7348 20.3281 16.6033 20.6541C16.9391 20.9989 17.1984 21.4133 17.3636 21.8694C17.5288 22.3255 17.5961 22.8125 17.5609 23.2975C17.5609 25.2184 17.5609 26.7692 17.5609 27.2362C17.5609 27.7033 17.8111 28.0645 18.5271 27.9235C21.6603 26.8203 24.311 24.6214 26.0108 21.7154C27.7106 18.8094 28.3502 15.3832 27.8166 12.0422C27.283 8.70116 25.6105 5.66029 23.0945 3.45677C20.5786 1.25325 17.3812 0.0288995 14.0671 7.42087e-06Z" fill="#F8F8F8"/>
</svg>
