<svg width="18" height="18" viewBox="0 0 18 18" fill="none" xmlns="http://www.w3.org/2000/svg">
<path fill-rule="evenodd" clip-rule="evenodd" d="M9.04314 4.77056e-06C6.89634 -0.00222393 4.81893 0.776515 3.18319 2.19667C1.54744 3.61682 0.460297 5.58555 0.116568 7.75006C-0.227161 9.91457 0.194996 12.1334 1.30739 14.0088C2.41978 15.8843 4.14969 17.2938 6.18711 17.9848C6.64186 18.0698 6.80268 17.7809 6.80268 17.5373C6.80268 17.2938 6.80268 16.7386 6.80268 15.9683C4.27939 16.5291 3.747 14.7277 3.747 14.7277C3.5796 14.1695 3.22398 13.6898 2.74323 13.3739C1.92801 12.8075 2.80978 12.8075 2.80978 12.8075C3.09555 12.8487 3.36838 12.9558 3.60763 13.1207C3.84687 13.2856 4.04625 13.5039 4.19066 13.7591C4.31336 13.9864 4.47879 14.1866 4.67746 14.3484C4.87613 14.5102 5.10411 14.6304 5.34835 14.7019C5.59258 14.7735 5.84824 14.7951 6.10067 14.7655C6.3531 14.7359 6.59732 14.6557 6.81932 14.5295C6.85412 14.0635 7.0508 13.6255 7.37389 13.2946C5.36635 13.0624 3.25898 12.2693 3.25898 8.76301C3.2452 7.84704 3.57679 6.96075 4.18511 6.28762C3.91418 5.4912 3.94585 4.61991 4.27384 3.84621C4.27384 3.84621 5.0336 3.59697 6.75832 4.79218C8.23934 4.37684 9.80258 4.37684 11.2836 4.79218C13.0083 3.59697 13.7625 3.84621 13.7625 3.84621C14.0951 4.61173 14.1347 5.47676 13.8734 6.27062C14.4818 6.94375 14.8134 7.83005 14.7996 8.74601C14.7996 12.292 12.6867 13.068 10.6736 13.2776C10.8894 13.4993 11.0561 13.7657 11.1623 14.0589C11.2685 14.3521 11.3118 14.6652 11.2892 14.977C11.2892 16.2118 11.2892 17.2088 11.2892 17.509C11.2892 17.8092 11.45 18.0415 11.9103 17.9508C13.9245 17.2416 15.6285 15.8281 16.7212 13.9599C17.814 12.0917 18.2252 9.8892 17.8821 7.7414C17.5391 5.5936 16.4639 3.63876 14.8465 2.22221C13.2291 0.805662 11.1736 0.0185782 9.04314 4.77056e-06Z" fill="#F9F9F9"/>
</svg>
