<svg width="20" height="14" viewBox="0 0 20 14" fill="none" xmlns="http://www.w3.org/2000/svg">
<path fill-rule="evenodd" clip-rule="evenodd" d="M9.93747 8.07598L0.566811 1.69657C0.92392 1.15069 1.54069 0.790039 2.2417 0.790039H17.2417C17.9506 0.790039 18.5733 1.15882 18.9285 1.71499L14.236 5.03488L9.93747 8.07598ZM15.3911 6.66758L19.2417 3.94333V11.0043C19.2417 11.0058 19.2417 11.0074 19.2417 11.0089L15.5432 7.06166L15.2605 6.75993L15.3911 6.66758ZM13.6124 7.92599L10.526 10.1095C10.1853 10.3506 9.73069 10.3547 9.38568 10.1198L6.1327 7.90523L1.36445 12.8022C1.62932 12.9316 1.92702 13.0043 2.2417 13.0043H17.2417C17.5732 13.0043 17.8859 12.9237 18.1612 12.7809L14.0838 8.42913L13.6124 7.92599ZM0.243363 11.0867L4.45399 6.76239L0.241699 3.89472V11.0043C0.241699 11.0319 0.242258 11.0594 0.243363 11.0867Z" fill="#F9F9F9"/>
</svg>
