<svg width="32" height="20" viewBox="0 0 32 20" fill="currentColor" xmlns="http://www.w3.org/2000/svg">
<path fill-rule="evenodd" clip-rule="evenodd" d="M0 5C0 4.93547 0.00122227 4.87123 0.00364493 4.8073L7.28818 9.50655L0.199961 16.4045C0.0698025 15.9589 0 15.4876 0 15V5ZM1.90733 18.9291C2.75828 19.5998 3.8324 20 5 20H27C28.1824 20 29.269 19.5895 30.125 18.9033L23.4342 12.1368L22.5117 11.2039L17.156 14.7944C16.6587 15.1278 16.0108 15.1335 15.5076 14.8089L9.87497 11.1753L1.90733 18.9291ZM25.0489 9.50302L25.5674 10.0274L31.8164 16.3472C31.936 15.9186 32 15.4668 32 15V5C32 4.94801 31.9992 4.8962 31.9976 4.84459L25.3361 9.31048L25.0489 9.50302ZM16.3049 11.7532L1.06134 1.91955C1.97658 0.750975 3.40059 0 5 0H27C28.6063 0 30.0358 0.757504 30.9505 1.93478L23.6655 6.81863L16.3049 11.7532Z" fill="#F8F8F8"/>
</svg>
